<svg xmlns="http://www.w3.org/2000/svg" xmlns:xlink="http://www.w3.org/1999/xlink" version="1.1" width="256" height="256" viewBox="0 0 256 256" xml:space="preserve">
<g style="stroke: none; stroke-width: 0; stroke-dasharray: none; stroke-linecap: butt; stroke-linejoin: miter; stroke-miterlimit: 10; fill: none; fill-rule: nonzero; opacity: 1;" transform="translate(1.4065934065934016 1.4065934065934016) scale(2.81 2.81)">
	<path d="M 86.617 66.494 L 51.561 14.636 c -3.14 -4.645 -9.981 -4.645 -13.122 0 L 3.383 66.494 c -3.555 5.259 0.213 12.354 6.561 12.354 h 70.113 C 86.405 78.848 90.173 71.753 86.617 66.494 z" style="stroke: none; stroke-width: 1; stroke-dasharray: none; stroke-linecap: butt; stroke-linejoin: miter; stroke-miterlimit: 10; fill: rgb(255,194,57); fill-rule: nonzero; opacity: 1;" transform=" matrix(1 0 0 1 0 0) " stroke-linecap="round"/>
	<path d="M 80.057 80.848 H 9.943 c -3.734 0 -7.009 -1.969 -8.76 -5.266 c -1.752 -3.298 -1.548 -7.113 0.543 -10.207 l 35.057 -51.858 C 38.63 10.784 41.701 9.152 45 9.152 c 3.299 0 6.37 1.631 8.218 4.364 l 35.057 51.858 c 2.091 3.094 2.293 6.909 0.542 10.207 C 87.065 78.879 83.79 80.848 80.057 80.848 z M 45 13.151 c -1.998 0 -3.785 0.949 -4.904 2.604 L 5.039 67.614 c -1.248 1.846 -1.369 4.124 -0.324 6.091 c 1.045 1.968 3 3.144 5.228 3.144 h 70.114 c 2.228 0 4.183 -1.175 5.228 -3.143 c 1.045 -1.968 0.924 -4.246 -0.324 -6.092 L 49.904 15.756 C 48.785 14.1 46.998 13.151 45 13.151 z" style="stroke: none; stroke-width: 1; stroke-dasharray: none; stroke-linecap: butt; stroke-linejoin: miter; stroke-miterlimit: 10; fill: rgb(0,0,0); fill-rule: nonzero; opacity: 1;" transform=" matrix(1 0 0 1 0 0) " stroke-linecap="round"/>
	<path d="M 45 57.816 L 45 57.816 c -2.236 0 -4.088 -1.737 -4.231 -3.969 l -1.43 -22.308 c -0.21 -3.269 2.385 -6.036 5.661 -6.036 h 0 c 3.276 0 5.871 2.767 5.661 6.036 l -1.43 22.308 C 49.088 56.079 47.236 57.816 45 57.816 z" style="stroke: none; stroke-width: 1; stroke-dasharray: none; stroke-linecap: butt; stroke-linejoin: miter; stroke-miterlimit: 10; fill: rgb(0,0,0); fill-rule: nonzero; opacity: 1;" transform=" matrix(1 0 0 1 0 0) " stroke-linecap="round"/>
	<circle cx="44.996" cy="67.516" r="4.226" style="stroke: none; stroke-width: 1; stroke-dasharray: none; stroke-linecap: butt; stroke-linejoin: miter; stroke-miterlimit: 10; fill: rgb(0,0,0); fill-rule: nonzero; opacity: 1;" transform="  matrix(1 0 0 1 0 0) "/>
</g>
</svg>